<svg width="26" height="32" viewBox="0 0 26 32" fill="none" xmlns="http://www.w3.org/2000/svg">
<path fill-rule="evenodd" clip-rule="evenodd" d="M13.0004 1.97499C10.0835 1.97499 7.2816 3.15984 5.21224 5.27623C3.14215 7.39337 1.97539 10.2694 1.97539 13.2727C1.97539 17.6617 4.75608 21.8583 7.71567 25.0533C9.17682 26.6307 10.6411 27.9206 11.7411 28.8164C12.2546 29.2346 12.687 29.5656 13.0004 29.7984C13.3138 29.5656 13.7462 29.2346 14.2597 28.8164C15.3597 27.9206 16.824 26.6307 18.2851 25.0533C21.2447 21.8583 24.0254 17.6617 24.0254 13.2727C24.0254 10.2694 22.8586 7.39337 20.7885 5.27623C18.7192 3.15984 15.9172 1.97499 13.0004 1.97499ZM13.0004 31L13.5496 31.8056C13.2183 32.0315 12.7825 32.0315 12.4511 31.8056L13.0004 31ZM3.81798 3.91295C6.24949 1.42618 9.55205 0.0249939 13.0004 0.0249939C16.4487 0.0249939 19.7513 1.42618 22.1828 3.91295C24.6136 6.39898 25.9754 9.76619 25.9754 13.2727C25.9754 18.4292 22.7561 23.0962 19.7157 26.3785C18.1768 28.0397 16.6411 29.3919 15.4911 30.3284C14.9153 30.7973 14.4343 31.1637 14.0953 31.414C13.9258 31.5393 13.7916 31.6356 13.6987 31.7014C13.6523 31.7343 13.6161 31.7596 13.5911 31.777L13.5618 31.7972L13.5535 31.8029L13.551 31.8046L13.5502 31.8052C13.5499 31.8054 13.5496 31.8056 13.0004 31C12.4511 31.8056 12.4509 31.8054 12.4506 31.8052L12.4497 31.8046L12.4472 31.8029L12.439 31.7972L12.4097 31.777C12.3846 31.7596 12.3485 31.7343 12.3021 31.7014C12.2092 31.6356 12.075 31.5393 11.9055 31.414C11.5665 31.1637 11.0855 30.7973 10.5097 30.3284C9.35966 29.3919 7.82396 28.0397 6.28511 26.3785C3.2447 23.0962 0.0253906 18.4292 0.0253906 13.2727C0.0253907 9.76619 1.38719 6.39898 3.81798 3.91295Z" fill="white"/>
<path fill-rule="evenodd" clip-rule="evenodd" d="M13.0004 10.1569C11.3503 10.1569 9.97539 11.5311 9.97539 13.2728C9.97539 15.0144 11.3503 16.3887 13.0004 16.3887C14.6505 16.3887 16.0254 15.0144 16.0254 13.2728C16.0254 11.5311 14.6505 10.1569 13.0004 10.1569ZM8.02539 13.2728C8.02539 10.4957 10.2322 8.20688 13.0004 8.20688C15.7685 8.20688 17.9754 10.4957 17.9754 13.2728C17.9754 16.0498 15.7685 18.3387 13.0004 18.3387C10.2322 18.3387 8.02539 16.0498 8.02539 13.2728Z" fill="white"/>
</svg>
