<svg width="36" height="36" viewBox="0 0 36 36" fill="none" xmlns="http://www.w3.org/2000/svg">
<rect width="12" height="1.5" rx="0.7" transform="matrix(1 0 0 -1 6 19.5)" fill="white"/>
<rect x="25.5" y="18" width="4.5" height="1.5" rx="0.7" fill="white"/>
<path d="M24.2596 22.2572V21.8429H29.0196V22.2572H24.2596ZM24.1196 20.8429C23.6531 20.8429 23.2596 21.2165 23.2596 21.6964V22.4036C23.2596 22.8835 23.6531 23.2572 24.1196 23.2572H29.1596C29.6261 23.2572 30.0196 22.8835 30.0196 22.4036V21.6964C30.0196 21.2165 29.6261 20.8429 29.1596 20.8429H24.1196ZM6.97961 22.2572V21.8429H14.6196V22.2572H6.97961ZM6.83961 20.8429C6.3731 20.8429 5.97961 21.2165 5.97961 21.6964V22.4036C5.97961 22.8835 6.3731 23.2572 6.83961 23.2572H14.7596C15.2261 23.2572 15.6196 22.8835 15.6196 22.4036V21.6964C15.6196 21.2165 15.2261 20.8429 14.7596 20.8429H6.83961ZM5.03961 26.5C4.51207 26.5 4.09961 26.0821 4.09961 25.5857V11.9429H31.8996V25.5857C31.8996 26.0821 31.4871 26.5 30.9596 26.5H5.03961ZM4.31961 7.70001H31.6796C31.8098 7.70001 31.8996 7.80106 31.8996 7.90716V9.52858H4.09961V7.90716C4.09961 7.80106 4.18942 7.70001 4.31961 7.70001Z" stroke="white"/>
</svg>
