<svg width="146" height="23" viewBox="0 0 146 23" fill="none" xmlns="http://www.w3.org/2000/svg">
<path d="M19.7269 0H3.27307C1.41538 0 0 1.41539 0 3.27308V19.7269C0 21.5846 1.41538 23 3.27307 23H19.7269C21.5846 23 23 21.5846 23 19.7269V3.27308C23 1.41539 21.5846 0 19.7269 0ZM11.5 18.4C15.3038 18.4 18.4 15.3923 18.4 11.7654C18.4 11.1462 18.3115 10.4385 18.1346 9.90769H20.0808V19.2846C20.0808 19.7269 19.7269 20.1692 19.1961 20.1692H3.80385C3.36154 20.1692 2.91923 19.8154 2.91923 19.2846V9.81923H4.95385C4.77693 10.4385 4.68846 11.0577 4.68846 11.6769C4.6 15.3923 7.69615 18.4 11.5 18.4ZM11.5 15.7462C9.02308 15.7462 7.07692 13.8 7.07692 11.4115C7.07692 9.02308 9.02308 7.07692 11.5 7.07692C13.9769 7.07692 15.9231 9.02308 15.9231 11.4115C15.9231 13.8885 13.9769 15.7462 11.5 15.7462ZM19.9923 6.28077C19.9923 6.81154 19.55 7.25385 19.0192 7.25385H16.5423C16.0115 7.25385 15.5692 6.81154 15.5692 6.28077V3.89231C15.5692 3.36154 16.0115 2.91923 16.5423 2.91923H19.0192C19.55 2.91923 19.9923 3.36154 19.9923 3.89231V6.28077Z" fill="white"/>
<path d="M42.5979 6.10005H44.8079V18.0001H42.5979V6.10005Z" fill="white"/>
<path d="M58.6006 6.10005V18.0001H56.7816L50.2196 9.94205V18.0001H48.0266V6.10005H49.8456L56.4076 14.1581V6.10005H58.6006Z" fill="white"/>
<path d="M65.4783 18.1701C64.5603 18.1701 63.6706 18.0397 62.8093 17.7791C61.9593 17.5184 61.285 17.1727 60.7863 16.7421L61.5513 15.0251C62.0386 15.4104 62.6336 15.7277 63.3363 15.9771C64.0503 16.2151 64.7643 16.3341 65.4783 16.3341C66.3623 16.3341 67.0196 16.1924 67.4503 15.9091C67.8923 15.6257 68.1133 15.2517 68.1133 14.7871C68.1133 14.4471 67.9886 14.1694 67.7393 13.9541C67.5013 13.7274 67.1953 13.5517 66.8213 13.4271C66.4473 13.3024 65.9373 13.1607 65.2913 13.0021C64.3846 12.7867 63.648 12.5714 63.0813 12.3561C62.526 12.1407 62.0443 11.8064 61.6363 11.3531C61.2396 10.8884 61.0413 10.2651 61.0413 9.48305C61.0413 8.82572 61.217 8.23072 61.5683 7.69805C61.931 7.15405 62.4693 6.72339 63.1833 6.40605C63.9086 6.08872 64.7926 5.93005 65.8353 5.93005C66.5606 5.93005 67.2746 6.02072 67.9773 6.20205C68.68 6.38339 69.2863 6.64405 69.7963 6.98405L69.0993 8.70105C68.578 8.39505 68.034 8.16272 67.4673 8.00405C66.9006 7.84539 66.351 7.76605 65.8183 7.76605C64.9456 7.76605 64.294 7.91339 63.8633 8.20805C63.444 8.50272 63.2343 8.89372 63.2343 9.38105C63.2343 9.72105 63.3533 9.99872 63.5913 10.2141C63.8406 10.4294 64.1523 10.5994 64.5263 10.7241C64.9003 10.8487 65.4103 10.9904 66.0563 11.1491C66.9403 11.3531 67.6656 11.5684 68.2323 11.7951C68.799 12.0104 69.2806 12.3447 69.6773 12.7981C70.0853 13.2514 70.2893 13.8634 70.2893 14.6341C70.2893 15.2914 70.108 15.8864 69.7453 16.4191C69.394 16.9517 68.8556 17.3767 68.1303 17.6941C67.405 18.0114 66.521 18.1701 65.4783 18.1701Z" fill="white"/>
<path d="M74.7287 7.97005H70.7847V6.10005H80.8827V7.97005H76.9387V18.0001H74.7287V7.97005Z" fill="white"/>
<path d="M89.6616 15.2461H83.7116L82.5386 18.0001H80.2606L85.6156 6.10005H87.7916L93.1636 18.0001H90.8516L89.6616 15.2461ZM88.9306 13.5121L86.6866 8.31005L84.4596 13.5121H88.9306Z" fill="white"/>
<path d="M102.637 11.9141H104.728V16.6571C104.116 17.1444 103.402 17.5184 102.586 17.7791C101.77 18.0397 100.931 18.1701 100.07 18.1701C98.8573 18.1701 97.7637 17.9094 96.789 17.3881C95.8143 16.8554 95.0493 16.1244 94.494 15.1951C93.9387 14.2657 93.661 13.2174 93.661 12.0501C93.661 10.8827 93.9387 9.83439 94.494 8.90505C95.0493 7.97572 95.8143 7.25039 96.789 6.72905C97.775 6.19639 98.88 5.93005 100.104 5.93005C101.101 5.93005 102.008 6.09439 102.824 6.42305C103.64 6.75172 104.326 7.23339 104.881 7.86805L103.487 9.22805C102.58 8.32139 101.487 7.86805 100.206 7.86805C99.3673 7.86805 98.6193 8.04372 97.962 8.39505C97.316 8.74639 96.806 9.23939 96.432 9.87405C96.0693 10.5087 95.888 11.2341 95.888 12.0501C95.888 12.8434 96.0693 13.5574 96.432 14.1921C96.806 14.8267 97.316 15.3254 97.962 15.6881C98.6193 16.0507 99.3617 16.2321 100.189 16.2321C101.118 16.2321 101.934 16.0281 102.637 15.6201V11.9141Z" fill="white"/>
<path d="M115.429 18.0001L112.998 14.5151C112.896 14.5264 112.743 14.5321 112.539 14.5321H109.853V18.0001H107.643V6.10005H112.539C113.57 6.10005 114.465 6.27005 115.225 6.61005C115.995 6.95005 116.585 7.43739 116.993 8.07205C117.401 8.70672 117.605 9.46039 117.605 10.3331C117.605 11.2284 117.384 11.9991 116.942 12.6451C116.511 13.2911 115.888 13.7727 115.072 14.0901L117.809 18.0001H115.429ZM115.378 10.3331C115.378 9.57372 115.128 8.99005 114.63 8.58205C114.131 8.17405 113.4 7.97005 112.437 7.97005H109.853V12.7131H112.437C113.4 12.7131 114.131 12.5091 114.63 12.1011C115.128 11.6817 115.378 11.0924 115.378 10.3331Z" fill="white"/>
<path d="M127.795 15.2461H121.845L120.672 18.0001H118.394L123.749 6.10005H125.925L131.297 18.0001H128.985L127.795 15.2461ZM127.064 13.5121L124.82 8.31005L122.593 13.5121H127.064Z" fill="white"/>
<path d="M143.742 18.0001L143.725 10.1121L139.815 16.6401H138.829L134.919 10.2141V18.0001H132.811V6.10005H134.63L139.356 13.9881L143.997 6.10005H145.816L145.833 18.0001H143.742Z" fill="white"/>
</svg>
