<svg width="48" height="48" viewBox="0 0 48 48" fill="none" xmlns="http://www.w3.org/2000/svg">
<path opacity="0.1" fill-rule="evenodd" clip-rule="evenodd" d="M24 47C36.7025 47 47 36.7025 47 24C47 11.2975 36.7025 1 24 1C11.2975 1 1 11.2975 1 24C1 36.7025 11.2975 47 24 47ZM24 48C37.2548 48 48 37.2548 48 24C48 10.7452 37.2548 0 24 0C10.7452 0 0 10.7452 0 24C0 37.2548 10.7452 48 24 48Z" fill="white"/>
<path fill-rule="evenodd" clip-rule="evenodd" d="M15.6464 24.3536C15.4512 24.1583 15.4512 23.8417 15.6464 23.6465L18.8284 20.4645C19.0237 20.2692 19.3403 20.2692 19.5355 20.4645C19.7308 20.6597 19.7308 20.9763 19.5355 21.1716L17.2071 23.5H31V24.5H17.2071L19.5355 26.8284C19.7308 27.0237 19.7308 27.3403 19.5355 27.5355C19.3403 27.7308 19.0237 27.7308 18.8284 27.5355L15.6464 24.3536Z" fill="white"/>
</svg>
