<svg width="48" height="48" viewBox="0 0 48 48" fill="none" xmlns="http://www.w3.org/2000/svg">
<path opacity="0.1" fill-rule="evenodd" clip-rule="evenodd" d="M24 47C36.7025 47 47 36.7025 47 24C47 11.2975 36.7025 1 24 1C11.2975 1 1 11.2975 1 24C1 36.7025 11.2975 47 24 47ZM24 48C37.2548 48 48 37.2548 48 24C48 10.7452 37.2548 0 24 0C10.7452 0 0 10.7452 0 24C0 37.2548 10.7452 48 24 48Z" fill="white"/>
<path fill-rule="evenodd" clip-rule="evenodd" d="M28.1716 20.4645L31.3536 23.6465C31.5488 23.8417 31.5488 24.1583 31.3536 24.3536L28.1716 27.5355C27.9763 27.7308 27.6597 27.7308 27.4645 27.5355C27.2692 27.3403 27.2692 27.0237 27.4645 26.8284L29.7929 24.5H16V23.5H29.7929L27.4645 21.1716C27.2692 20.9763 27.2692 20.6597 27.4645 20.4645C27.6597 20.2692 27.9763 20.2692 28.1716 20.4645Z" fill="white"/>
</svg>
